<mxfile host="app.diagrams.net" agent="Mozilla/5.0 (Windows NT 10.0; Win64; x64; rv:132.0) Gecko/20100101 Firefox/132.0" version="24.8.3">
  <diagram name="Page-1" id="pM0YAZhcPk0PvOChf1yF">
    <mxGraphModel dx="1434" dy="753" grid="1" gridSize="10" guides="1" tooltips="1" connect="1" arrows="1" fold="1" page="1" pageScale="1" pageWidth="1169" pageHeight="827" math="0" shadow="0">
      <root>
        <mxCell id="0" />
        <mxCell id="1" parent="0" />
        <mxCell id="Tt-TAS7i6GOdsketkZrf-1" value="" style="rounded=0;whiteSpace=wrap;html=1;" vertex="1" parent="1">
          <mxGeometry x="240" y="100" width="920" height="660" as="geometry" />
        </mxCell>
        <mxCell id="Tt-TAS7i6GOdsketkZrf-36" style="edgeStyle=orthogonalEdgeStyle;rounded=0;orthogonalLoop=1;jettySize=auto;html=1;entryX=0;entryY=0.5;entryDx=0;entryDy=0;endArrow=none;endFill=0;" edge="1" parent="1" source="Tt-TAS7i6GOdsketkZrf-2" target="Tt-TAS7i6GOdsketkZrf-20">
          <mxGeometry relative="1" as="geometry" />
        </mxCell>
        <mxCell id="Tt-TAS7i6GOdsketkZrf-37" style="edgeStyle=orthogonalEdgeStyle;rounded=0;orthogonalLoop=1;jettySize=auto;html=1;endArrow=none;endFill=0;" edge="1" parent="1" source="Tt-TAS7i6GOdsketkZrf-2" target="Tt-TAS7i6GOdsketkZrf-8">
          <mxGeometry relative="1" as="geometry" />
        </mxCell>
        <mxCell id="Tt-TAS7i6GOdsketkZrf-2" value="Logged In User" style="shape=umlActor;verticalLabelPosition=bottom;verticalAlign=top;html=1;outlineConnect=0;" vertex="1" parent="1">
          <mxGeometry x="140" y="170" width="30" height="60" as="geometry" />
        </mxCell>
        <mxCell id="Tt-TAS7i6GOdsketkZrf-63" style="edgeStyle=orthogonalEdgeStyle;rounded=0;orthogonalLoop=1;jettySize=auto;html=1;entryX=1;entryY=0.5;entryDx=0;entryDy=0;endArrow=none;endFill=0;" edge="1" parent="1" source="Tt-TAS7i6GOdsketkZrf-3" target="Tt-TAS7i6GOdsketkZrf-56">
          <mxGeometry relative="1" as="geometry" />
        </mxCell>
        <mxCell id="Tt-TAS7i6GOdsketkZrf-3" value="Database" style="shape=umlActor;verticalLabelPosition=bottom;verticalAlign=top;html=1;outlineConnect=0;" vertex="1" parent="1">
          <mxGeometry x="1210" y="590" width="30" height="60" as="geometry" />
        </mxCell>
        <mxCell id="Tt-TAS7i6GOdsketkZrf-32" style="edgeStyle=orthogonalEdgeStyle;rounded=0;orthogonalLoop=1;jettySize=auto;html=1;dashed=1;endArrow=open;endFill=0;" edge="1" parent="1" source="Tt-TAS7i6GOdsketkZrf-4" target="Tt-TAS7i6GOdsketkZrf-5">
          <mxGeometry relative="1" as="geometry" />
        </mxCell>
        <mxCell id="Tt-TAS7i6GOdsketkZrf-35" value="&amp;lt;&amp;lt;extend&amp;gt;&amp;gt;" style="edgeLabel;html=1;align=center;verticalAlign=middle;resizable=0;points=[];" vertex="1" connectable="0" parent="Tt-TAS7i6GOdsketkZrf-32">
          <mxGeometry x="-0.0625" relative="1" as="geometry">
            <mxPoint as="offset" />
          </mxGeometry>
        </mxCell>
        <mxCell id="Tt-TAS7i6GOdsketkZrf-38" style="edgeStyle=orthogonalEdgeStyle;rounded=0;orthogonalLoop=1;jettySize=auto;html=1;entryX=0;entryY=0.5;entryDx=0;entryDy=0;endArrow=none;endFill=0;" edge="1" parent="1" source="Tt-TAS7i6GOdsketkZrf-4" target="Tt-TAS7i6GOdsketkZrf-23">
          <mxGeometry relative="1" as="geometry" />
        </mxCell>
        <mxCell id="Tt-TAS7i6GOdsketkZrf-4" value="Group Owner" style="shape=umlActor;verticalLabelPosition=bottom;verticalAlign=top;html=1;outlineConnect=0;" vertex="1" parent="1">
          <mxGeometry x="140" y="610" width="30" height="60" as="geometry" />
        </mxCell>
        <mxCell id="Tt-TAS7i6GOdsketkZrf-33" style="edgeStyle=orthogonalEdgeStyle;rounded=0;orthogonalLoop=1;jettySize=auto;html=1;dashed=1;endArrow=open;endFill=0;" edge="1" parent="1" source="Tt-TAS7i6GOdsketkZrf-5" target="Tt-TAS7i6GOdsketkZrf-2">
          <mxGeometry relative="1" as="geometry" />
        </mxCell>
        <mxCell id="Tt-TAS7i6GOdsketkZrf-34" value="&amp;lt;&amp;lt;extend&amp;gt;&amp;gt;" style="edgeLabel;html=1;align=center;verticalAlign=middle;resizable=0;points=[];" vertex="1" connectable="0" parent="Tt-TAS7i6GOdsketkZrf-33">
          <mxGeometry x="-0.125" y="1" relative="1" as="geometry">
            <mxPoint as="offset" />
          </mxGeometry>
        </mxCell>
        <mxCell id="Tt-TAS7i6GOdsketkZrf-46" style="edgeStyle=orthogonalEdgeStyle;rounded=0;orthogonalLoop=1;jettySize=auto;html=1;entryX=0;entryY=0.5;entryDx=0;entryDy=0;endArrow=none;endFill=0;" edge="1" parent="1" source="Tt-TAS7i6GOdsketkZrf-5" target="Tt-TAS7i6GOdsketkZrf-26">
          <mxGeometry relative="1" as="geometry" />
        </mxCell>
        <mxCell id="Tt-TAS7i6GOdsketkZrf-47" style="edgeStyle=orthogonalEdgeStyle;rounded=0;orthogonalLoop=1;jettySize=auto;html=1;entryX=0;entryY=0.5;entryDx=0;entryDy=0;endArrow=none;endFill=0;" edge="1" parent="1" source="Tt-TAS7i6GOdsketkZrf-5" target="Tt-TAS7i6GOdsketkZrf-24">
          <mxGeometry relative="1" as="geometry" />
        </mxCell>
        <mxCell id="Tt-TAS7i6GOdsketkZrf-48" style="edgeStyle=orthogonalEdgeStyle;rounded=0;orthogonalLoop=1;jettySize=auto;html=1;entryX=0;entryY=0.5;entryDx=0;entryDy=0;endArrow=none;endFill=0;" edge="1" parent="1" source="Tt-TAS7i6GOdsketkZrf-5" target="Tt-TAS7i6GOdsketkZrf-27">
          <mxGeometry relative="1" as="geometry" />
        </mxCell>
        <mxCell id="Tt-TAS7i6GOdsketkZrf-5" value="Group Member" style="shape=umlActor;verticalLabelPosition=bottom;verticalAlign=top;html=1;outlineConnect=0;" vertex="1" parent="1">
          <mxGeometry x="140" y="390" width="30" height="60" as="geometry" />
        </mxCell>
        <mxCell id="Tt-TAS7i6GOdsketkZrf-58" style="edgeStyle=orthogonalEdgeStyle;rounded=0;orthogonalLoop=1;jettySize=auto;html=1;exitX=0.5;exitY=1;exitDx=0;exitDy=0;entryX=0.5;entryY=0;entryDx=0;entryDy=0;endArrow=open;endFill=0;dashed=1;" edge="1" parent="1" source="Tt-TAS7i6GOdsketkZrf-8" target="Tt-TAS7i6GOdsketkZrf-23">
          <mxGeometry relative="1" as="geometry" />
        </mxCell>
        <mxCell id="Tt-TAS7i6GOdsketkZrf-59" value="&amp;lt;&amp;lt;include&amp;gt;&amp;gt;" style="edgeLabel;html=1;align=center;verticalAlign=middle;resizable=0;points=[];" vertex="1" connectable="0" parent="Tt-TAS7i6GOdsketkZrf-58">
          <mxGeometry x="0.6667" y="1" relative="1" as="geometry">
            <mxPoint as="offset" />
          </mxGeometry>
        </mxCell>
        <mxCell id="Tt-TAS7i6GOdsketkZrf-8" value="Create group" style="ellipse;whiteSpace=wrap;html=1;" vertex="1" parent="1">
          <mxGeometry x="350" y="220" width="140" height="80" as="geometry" />
        </mxCell>
        <mxCell id="Tt-TAS7i6GOdsketkZrf-71" style="edgeStyle=orthogonalEdgeStyle;rounded=0;orthogonalLoop=1;jettySize=auto;html=1;exitX=1;exitY=0.5;exitDx=0;exitDy=0;entryX=0;entryY=0.5;entryDx=0;entryDy=0;endArrow=open;endFill=0;dashed=1;" edge="1" parent="1" source="Tt-TAS7i6GOdsketkZrf-20" target="Tt-TAS7i6GOdsketkZrf-56">
          <mxGeometry relative="1" as="geometry">
            <Array as="points">
              <mxPoint x="750" y="170" />
              <mxPoint x="750" y="620" />
            </Array>
          </mxGeometry>
        </mxCell>
        <mxCell id="Tt-TAS7i6GOdsketkZrf-75" value="&amp;lt;&amp;lt;include&amp;gt;&amp;gt;" style="edgeLabel;html=1;align=center;verticalAlign=middle;resizable=0;points=[];" vertex="1" connectable="0" parent="Tt-TAS7i6GOdsketkZrf-71">
          <mxGeometry x="-0.6321" relative="1" as="geometry">
            <mxPoint x="-54" y="-10" as="offset" />
          </mxGeometry>
        </mxCell>
        <mxCell id="Tt-TAS7i6GOdsketkZrf-20" value="Join group" style="ellipse;whiteSpace=wrap;html=1;" vertex="1" parent="1">
          <mxGeometry x="350" y="130" width="140" height="80" as="geometry" />
        </mxCell>
        <mxCell id="Tt-TAS7i6GOdsketkZrf-67" style="edgeStyle=orthogonalEdgeStyle;rounded=0;orthogonalLoop=1;jettySize=auto;html=1;exitX=0;exitY=0.5;exitDx=0;exitDy=0;entryX=1;entryY=0;entryDx=0;entryDy=0;" edge="1" parent="1" source="Tt-TAS7i6GOdsketkZrf-21" target="Tt-TAS7i6GOdsketkZrf-23">
          <mxGeometry relative="1" as="geometry">
            <Array as="points">
              <mxPoint x="470" y="580" />
            </Array>
          </mxGeometry>
        </mxCell>
        <mxCell id="Tt-TAS7i6GOdsketkZrf-21" value="&lt;div&gt;Manage group&lt;/div&gt;&lt;div&gt;members&lt;/div&gt;" style="ellipse;whiteSpace=wrap;html=1;" vertex="1" parent="1">
          <mxGeometry x="600" y="540" width="140" height="80" as="geometry" />
        </mxCell>
        <mxCell id="Tt-TAS7i6GOdsketkZrf-66" style="edgeStyle=orthogonalEdgeStyle;rounded=0;orthogonalLoop=1;jettySize=auto;html=1;exitX=0;exitY=0.5;exitDx=0;exitDy=0;entryX=1;entryY=1;entryDx=0;entryDy=0;" edge="1" parent="1" source="Tt-TAS7i6GOdsketkZrf-22" target="Tt-TAS7i6GOdsketkZrf-23">
          <mxGeometry relative="1" as="geometry">
            <Array as="points">
              <mxPoint x="470" y="700" />
            </Array>
          </mxGeometry>
        </mxCell>
        <mxCell id="Tt-TAS7i6GOdsketkZrf-22" value="Manage group details" style="ellipse;whiteSpace=wrap;html=1;" vertex="1" parent="1">
          <mxGeometry x="600" y="660" width="140" height="80" as="geometry" />
        </mxCell>
        <mxCell id="Tt-TAS7i6GOdsketkZrf-23" value="Manage group" style="ellipse;whiteSpace=wrap;html=1;" vertex="1" parent="1">
          <mxGeometry x="350" y="600" width="140" height="80" as="geometry" />
        </mxCell>
        <mxCell id="Tt-TAS7i6GOdsketkZrf-24" value="&lt;div&gt;Generate invitation&lt;/div&gt;&lt;div&gt;link&lt;br&gt;&lt;/div&gt;" style="ellipse;whiteSpace=wrap;html=1;" vertex="1" parent="1">
          <mxGeometry x="430" y="310" width="140" height="80" as="geometry" />
        </mxCell>
        <mxCell id="Tt-TAS7i6GOdsketkZrf-70" style="edgeStyle=orthogonalEdgeStyle;rounded=0;orthogonalLoop=1;jettySize=auto;html=1;exitX=1;exitY=0.5;exitDx=0;exitDy=0;entryX=0;entryY=0;entryDx=0;entryDy=0;endArrow=open;endFill=0;dashed=1;" edge="1" parent="1" source="Tt-TAS7i6GOdsketkZrf-26" target="Tt-TAS7i6GOdsketkZrf-56">
          <mxGeometry relative="1" as="geometry">
            <Array as="points">
              <mxPoint x="810" y="490" />
              <mxPoint x="810" y="592" />
            </Array>
          </mxGeometry>
        </mxCell>
        <mxCell id="Tt-TAS7i6GOdsketkZrf-76" value="&amp;lt;&amp;lt;include&amp;gt;&amp;gt;" style="edgeLabel;html=1;align=center;verticalAlign=middle;resizable=0;points=[];" vertex="1" connectable="0" parent="Tt-TAS7i6GOdsketkZrf-70">
          <mxGeometry x="-0.6668" y="3" relative="1" as="geometry">
            <mxPoint y="-7" as="offset" />
          </mxGeometry>
        </mxCell>
        <mxCell id="Tt-TAS7i6GOdsketkZrf-26" value="Leave group" style="ellipse;whiteSpace=wrap;html=1;" vertex="1" parent="1">
          <mxGeometry x="430" y="450" width="140" height="80" as="geometry" />
        </mxCell>
        <mxCell id="Tt-TAS7i6GOdsketkZrf-27" value="View group" style="ellipse;whiteSpace=wrap;html=1;" vertex="1" parent="1">
          <mxGeometry x="520" y="380" width="140" height="80" as="geometry" />
        </mxCell>
        <mxCell id="Tt-TAS7i6GOdsketkZrf-52" style="edgeStyle=orthogonalEdgeStyle;rounded=0;orthogonalLoop=1;jettySize=auto;html=1;entryX=1;entryY=0.5;entryDx=0;entryDy=0;endArrow=open;endFill=0;dashed=1;" edge="1" parent="1" source="Tt-TAS7i6GOdsketkZrf-28" target="Tt-TAS7i6GOdsketkZrf-27">
          <mxGeometry relative="1" as="geometry" />
        </mxCell>
        <mxCell id="Tt-TAS7i6GOdsketkZrf-64" value="&amp;lt;&amp;lt;extend&amp;gt;&amp;gt;" style="edgeLabel;html=1;align=center;verticalAlign=middle;resizable=0;points=[];" vertex="1" connectable="0" parent="Tt-TAS7i6GOdsketkZrf-52">
          <mxGeometry x="-0.08" y="1" relative="1" as="geometry">
            <mxPoint y="-11" as="offset" />
          </mxGeometry>
        </mxCell>
        <mxCell id="Tt-TAS7i6GOdsketkZrf-72" style="edgeStyle=orthogonalEdgeStyle;rounded=0;orthogonalLoop=1;jettySize=auto;html=1;exitX=0.5;exitY=1;exitDx=0;exitDy=0;entryX=0.5;entryY=0;entryDx=0;entryDy=0;dashed=1;endArrow=open;endFill=0;" edge="1" parent="1" source="Tt-TAS7i6GOdsketkZrf-28" target="Tt-TAS7i6GOdsketkZrf-56">
          <mxGeometry relative="1" as="geometry">
            <Array as="points">
              <mxPoint x="840" y="560" />
              <mxPoint x="920" y="560" />
            </Array>
          </mxGeometry>
        </mxCell>
        <mxCell id="Tt-TAS7i6GOdsketkZrf-77" value="&amp;lt;&amp;lt;include&amp;gt;&amp;gt;" style="edgeLabel;html=1;align=center;verticalAlign=middle;resizable=0;points=[];" vertex="1" connectable="0" parent="Tt-TAS7i6GOdsketkZrf-72">
          <mxGeometry x="0.34" relative="1" as="geometry">
            <mxPoint x="6" y="-10" as="offset" />
          </mxGeometry>
        </mxCell>
        <mxCell id="Tt-TAS7i6GOdsketkZrf-28" value="Interact with group" style="ellipse;whiteSpace=wrap;html=1;" vertex="1" parent="1">
          <mxGeometry x="770" y="380" width="140" height="80" as="geometry" />
        </mxCell>
        <mxCell id="Tt-TAS7i6GOdsketkZrf-53" style="edgeStyle=orthogonalEdgeStyle;rounded=0;orthogonalLoop=1;jettySize=auto;html=1;entryX=1;entryY=0;entryDx=0;entryDy=0;" edge="1" parent="1" source="Tt-TAS7i6GOdsketkZrf-29" target="Tt-TAS7i6GOdsketkZrf-28">
          <mxGeometry relative="1" as="geometry" />
        </mxCell>
        <mxCell id="Tt-TAS7i6GOdsketkZrf-29" value="Post outfit" style="ellipse;whiteSpace=wrap;html=1;" vertex="1" parent="1">
          <mxGeometry x="990" y="290" width="140" height="80" as="geometry" />
        </mxCell>
        <mxCell id="Tt-TAS7i6GOdsketkZrf-54" style="edgeStyle=orthogonalEdgeStyle;rounded=0;orthogonalLoop=1;jettySize=auto;html=1;exitX=0;exitY=0.5;exitDx=0;exitDy=0;entryX=1;entryY=0.5;entryDx=0;entryDy=0;" edge="1" parent="1" source="Tt-TAS7i6GOdsketkZrf-31" target="Tt-TAS7i6GOdsketkZrf-28">
          <mxGeometry relative="1" as="geometry" />
        </mxCell>
        <mxCell id="Tt-TAS7i6GOdsketkZrf-31" value="Like a post" style="ellipse;whiteSpace=wrap;html=1;" vertex="1" parent="1">
          <mxGeometry x="990" y="380" width="140" height="80" as="geometry" />
        </mxCell>
        <mxCell id="Tt-TAS7i6GOdsketkZrf-55" style="edgeStyle=orthogonalEdgeStyle;rounded=0;orthogonalLoop=1;jettySize=auto;html=1;exitX=0;exitY=0.5;exitDx=0;exitDy=0;entryX=1;entryY=1;entryDx=0;entryDy=0;" edge="1" parent="1" source="Tt-TAS7i6GOdsketkZrf-51" target="Tt-TAS7i6GOdsketkZrf-28">
          <mxGeometry relative="1" as="geometry" />
        </mxCell>
        <mxCell id="Tt-TAS7i6GOdsketkZrf-51" value="Comment on a post" style="ellipse;whiteSpace=wrap;html=1;" vertex="1" parent="1">
          <mxGeometry x="990" y="470" width="140" height="80" as="geometry" />
        </mxCell>
        <mxCell id="Tt-TAS7i6GOdsketkZrf-73" style="edgeStyle=orthogonalEdgeStyle;rounded=0;orthogonalLoop=1;jettySize=auto;html=1;exitX=0;exitY=1;exitDx=0;exitDy=0;entryX=1;entryY=0.5;entryDx=0;entryDy=0;endArrow=open;endFill=0;dashed=1;" edge="1" parent="1" source="Tt-TAS7i6GOdsketkZrf-56" target="Tt-TAS7i6GOdsketkZrf-23">
          <mxGeometry relative="1" as="geometry" />
        </mxCell>
        <mxCell id="Tt-TAS7i6GOdsketkZrf-74" value="&amp;lt;&amp;lt;include&amp;gt;&amp;gt;" style="edgeLabel;html=1;align=center;verticalAlign=middle;resizable=0;points=[];" vertex="1" connectable="0" parent="Tt-TAS7i6GOdsketkZrf-73">
          <mxGeometry x="0.6759" y="-1" relative="1" as="geometry">
            <mxPoint x="-3" y="-9" as="offset" />
          </mxGeometry>
        </mxCell>
        <mxCell id="Tt-TAS7i6GOdsketkZrf-56" value="&lt;div&gt;Store new&lt;/div&gt;&lt;div&gt;information&lt;/div&gt;" style="ellipse;whiteSpace=wrap;html=1;" vertex="1" parent="1">
          <mxGeometry x="850" y="580" width="140" height="80" as="geometry" />
        </mxCell>
        <mxCell id="Tt-TAS7i6GOdsketkZrf-65" value="&lt;b&gt;&lt;font style=&quot;font-size: 18px;&quot;&gt;Group Management&lt;/font&gt;&lt;/b&gt;" style="text;html=1;align=center;verticalAlign=middle;whiteSpace=wrap;rounded=0;" vertex="1" parent="1">
          <mxGeometry x="595" y="100" width="210" height="30" as="geometry" />
        </mxCell>
        <mxCell id="Tt-TAS7i6GOdsketkZrf-81" style="edgeStyle=orthogonalEdgeStyle;rounded=0;orthogonalLoop=1;jettySize=auto;html=1;entryX=1;entryY=0.5;entryDx=0;entryDy=0;endArrow=none;endFill=0;" edge="1" parent="1" source="Tt-TAS7i6GOdsketkZrf-78" target="Tt-TAS7i6GOdsketkZrf-8">
          <mxGeometry relative="1" as="geometry" />
        </mxCell>
        <mxCell id="Tt-TAS7i6GOdsketkZrf-82" style="edgeStyle=orthogonalEdgeStyle;rounded=0;orthogonalLoop=1;jettySize=auto;html=1;entryX=1;entryY=0.5;entryDx=0;entryDy=0;endArrow=none;endFill=0;" edge="1" parent="1" source="Tt-TAS7i6GOdsketkZrf-78" target="Tt-TAS7i6GOdsketkZrf-24">
          <mxGeometry relative="1" as="geometry">
            <Array as="points">
              <mxPoint x="820" y="260" />
              <mxPoint x="820" y="350" />
            </Array>
          </mxGeometry>
        </mxCell>
        <mxCell id="Tt-TAS7i6GOdsketkZrf-78" value="System" style="shape=umlActor;verticalLabelPosition=bottom;verticalAlign=top;html=1;outlineConnect=0;" vertex="1" parent="1">
          <mxGeometry x="1210" y="230" width="30" height="60" as="geometry" />
        </mxCell>
      </root>
    </mxGraphModel>
  </diagram>
</mxfile>
